<svg xmlns="http://www.w3.org/2000/svg" fill="none" viewBox="0 0 434 200"><g filter="url(#filter0_d)"><rect width="96" height="48" x="10" y="10" fill="#fff" rx="3"/></g><rect width="41" height="6" x="22" y="25" fill="#E9EBF0" rx="3"/><circle cx="90" cy="42" r="7.5" stroke="#B9BEC7" stroke-dasharray="2 2" opacity=".6"/><g filter="url(#filter1_d)"><rect width="96" height="44" x="10" y="58" fill="#fff" rx="3"/></g><rect width="41" height="6" x="22" y="70" fill="#E9EBF0" rx="3"/><circle cx="90" cy="86" r="7.5" stroke="#B9BEC7" stroke-dasharray="2 2" opacity=".6"/><g filter="url(#filter2_d)"><rect width="96" height="44" x="10" y="102" fill="#fff" rx="3"/></g><rect width="41" height="6" x="22" y="114" fill="#E9EBF0" rx="3"/><circle cx="90" cy="130" r="7.5" stroke="#B9BEC7" stroke-dasharray="2 2" opacity=".6"/><g filter="url(#filter3_d)"><rect width="96" height="44" x="10" y="146" fill="#fff" rx="3"/></g><rect width="41" height="6" x="22" y="158" fill="#E9EBF0" rx="3"/><circle cx="90" cy="174" r="7.5" stroke="#B9BEC7" stroke-dasharray="2 2" opacity=".6"/><path fill="#B9BEC7" d="M10 13a3 3 0 013-3h90a3 3 0 013 3H10z"/><g filter="url(#filter4_d)"><rect width="96" height="48" x="116" y="10" fill="#fff" rx="3"/></g><rect width="41" height="6" x="128" y="25" fill="#E9EBF0" rx="3"/><circle cx="196" cy="42" r="7.5" stroke="#B9BEC7" stroke-dasharray="2 2" opacity=".6"/><g filter="url(#filter5_d)"><rect width="96" height="44" x="116" y="58" fill="#fff" rx="3"/></g><rect width="41" height="6" x="128" y="70" fill="#E9EBF0" rx="3"/><circle cx="196" cy="86" r="7.5" stroke="#B9BEC7" stroke-dasharray="2 2" opacity=".6"/><g filter="url(#filter6_d)"><rect width="96" height="44" x="116" y="102" fill="#fff" rx="3"/></g><rect width="41" height="6" x="128" y="114" fill="#E9EBF0" rx="3"/><circle cx="196" cy="130" r="7.5" stroke="#B9BEC7" stroke-dasharray="2 2" opacity=".6"/><path fill="#5595EF" d="M116 13a3 3 0 013-3h90a3 3 0 013 3h-96z"/><g filter="url(#filter7_d)"><rect width="96" height="48" x="222" y="10" fill="#fff" rx="3"/></g><rect width="41" height="6" x="234" y="25" fill="#E9EBF0" rx="3"/><circle cx="302" cy="42" r="7.5" stroke="#B9BEC7" stroke-dasharray="2 2" opacity=".6"/><g filter="url(#filter8_d)"><rect width="96" height="44" x="222" y="58" fill="#fff" rx="3"/></g><rect width="41" height="6" x="234" y="70" fill="#E9EBF0" rx="3"/><circle cx="302" cy="86" r="7.5" stroke="#B9BEC7" stroke-dasharray="2 2" opacity=".6"/><g filter="url(#filter9_d)"><rect width="96" height="44" x="222" y="102" fill="#fff" rx="3"/></g><rect width="41" height="6" x="234" y="114" fill="#E9EBF0" rx="3"/><circle cx="302" cy="130" r="7.5" stroke="#B9BEC7" stroke-dasharray="2 2" opacity=".6"/><g filter="url(#filter10_d)"><rect width="96" height="44" x="222" y="146" fill="#fff" rx="3"/></g><rect width="41" height="6" x="234" y="158" fill="#E9EBF0" rx="3"/><circle cx="302" cy="174" r="7.5" stroke="#B9BEC7" stroke-dasharray="2 2" opacity=".6"/><path fill="#FBCC43" d="M222 13a3 3 0 013-3h90a3 3 0 013 3h-96z"/><g filter="url(#filter11_d)"><rect width="96" height="48" x="328" y="10" fill="#fff" rx="3"/></g><rect width="41" height="6" x="340" y="25" fill="#E9EBF0" rx="3"/><circle cx="408" cy="42" r="7.5" stroke="#B9BEC7" stroke-dasharray="2 2" opacity=".6"/><g filter="url(#filter12_d)"><rect width="96" height="44" x="328" y="58" fill="#fff" rx="3"/></g><rect width="41" height="6" x="340" y="70" fill="#E9EBF0" rx="3"/><circle cx="408" cy="86" r="7.5" stroke="#B9BEC7" stroke-dasharray="2 2" opacity=".6"/><path fill="#7DC560" d="M328 13a3 3 0 013-3h90a3 3 0 013 3h-96z"/><defs><filter id="filter0_d" width="116" height="68" x="0" y="0" color-interpolation-filters="sRGB" filterUnits="userSpaceOnUse"><feFlood flood-opacity="0" result="BackgroundImageFix"/><feColorMatrix in="SourceAlpha" values="0 0 0 0 0 0 0 0 0 0 0 0 0 0 0 0 0 0 127 0"/><feOffset/><feGaussianBlur stdDeviation="5"/><feColorMatrix values="0 0 0 0 0 0 0 0 0 0 0 0 0 0 0 0 0 0 0.08 0"/><feBlend in2="BackgroundImageFix" result="effect1_dropShadow"/><feBlend in="SourceGraphic" in2="effect1_dropShadow" result="shape"/></filter><filter id="filter1_d" width="116" height="64" x="0" y="48" color-interpolation-filters="sRGB" filterUnits="userSpaceOnUse"><feFlood flood-opacity="0" result="BackgroundImageFix"/><feColorMatrix in="SourceAlpha" values="0 0 0 0 0 0 0 0 0 0 0 0 0 0 0 0 0 0 127 0"/><feOffset/><feGaussianBlur stdDeviation="5"/><feColorMatrix values="0 0 0 0 0 0 0 0 0 0 0 0 0 0 0 0 0 0 0.08 0"/><feBlend in2="BackgroundImageFix" result="effect1_dropShadow"/><feBlend in="SourceGraphic" in2="effect1_dropShadow" result="shape"/></filter><filter id="filter2_d" width="116" height="64" x="0" y="92" color-interpolation-filters="sRGB" filterUnits="userSpaceOnUse"><feFlood flood-opacity="0" result="BackgroundImageFix"/><feColorMatrix in="SourceAlpha" values="0 0 0 0 0 0 0 0 0 0 0 0 0 0 0 0 0 0 127 0"/><feOffset/><feGaussianBlur stdDeviation="5"/><feColorMatrix values="0 0 0 0 0 0 0 0 0 0 0 0 0 0 0 0 0 0 0.08 0"/><feBlend in2="BackgroundImageFix" result="effect1_dropShadow"/><feBlend in="SourceGraphic" in2="effect1_dropShadow" result="shape"/></filter><filter id="filter3_d" width="116" height="64" x="0" y="136" color-interpolation-filters="sRGB" filterUnits="userSpaceOnUse"><feFlood flood-opacity="0" result="BackgroundImageFix"/><feColorMatrix in="SourceAlpha" values="0 0 0 0 0 0 0 0 0 0 0 0 0 0 0 0 0 0 127 0"/><feOffset/><feGaussianBlur stdDeviation="5"/><feColorMatrix values="0 0 0 0 0 0 0 0 0 0 0 0 0 0 0 0 0 0 0.08 0"/><feBlend in2="BackgroundImageFix" result="effect1_dropShadow"/><feBlend in="SourceGraphic" in2="effect1_dropShadow" result="shape"/></filter><filter id="filter4_d" width="116" height="68" x="106" y="0" color-interpolation-filters="sRGB" filterUnits="userSpaceOnUse"><feFlood flood-opacity="0" result="BackgroundImageFix"/><feColorMatrix in="SourceAlpha" values="0 0 0 0 0 0 0 0 0 0 0 0 0 0 0 0 0 0 127 0"/><feOffset/><feGaussianBlur stdDeviation="5"/><feColorMatrix values="0 0 0 0 0 0 0 0 0 0 0 0 0 0 0 0 0 0 0.08 0"/><feBlend in2="BackgroundImageFix" result="effect1_dropShadow"/><feBlend in="SourceGraphic" in2="effect1_dropShadow" result="shape"/></filter><filter id="filter5_d" width="116" height="64" x="106" y="48" color-interpolation-filters="sRGB" filterUnits="userSpaceOnUse"><feFlood flood-opacity="0" result="BackgroundImageFix"/><feColorMatrix in="SourceAlpha" values="0 0 0 0 0 0 0 0 0 0 0 0 0 0 0 0 0 0 127 0"/><feOffset/><feGaussianBlur stdDeviation="5"/><feColorMatrix values="0 0 0 0 0 0 0 0 0 0 0 0 0 0 0 0 0 0 0.08 0"/><feBlend in2="BackgroundImageFix" result="effect1_dropShadow"/><feBlend in="SourceGraphic" in2="effect1_dropShadow" result="shape"/></filter><filter id="filter6_d" width="116" height="64" x="106" y="92" color-interpolation-filters="sRGB" filterUnits="userSpaceOnUse"><feFlood flood-opacity="0" result="BackgroundImageFix"/><feColorMatrix in="SourceAlpha" values="0 0 0 0 0 0 0 0 0 0 0 0 0 0 0 0 0 0 127 0"/><feOffset/><feGaussianBlur stdDeviation="5"/><feColorMatrix values="0 0 0 0 0 0 0 0 0 0 0 0 0 0 0 0 0 0 0.08 0"/><feBlend in2="BackgroundImageFix" result="effect1_dropShadow"/><feBlend in="SourceGraphic" in2="effect1_dropShadow" result="shape"/></filter><filter id="filter7_d" width="116" height="68" x="212" y="0" color-interpolation-filters="sRGB" filterUnits="userSpaceOnUse"><feFlood flood-opacity="0" result="BackgroundImageFix"/><feColorMatrix in="SourceAlpha" values="0 0 0 0 0 0 0 0 0 0 0 0 0 0 0 0 0 0 127 0"/><feOffset/><feGaussianBlur stdDeviation="5"/><feColorMatrix values="0 0 0 0 0 0 0 0 0 0 0 0 0 0 0 0 0 0 0.08 0"/><feBlend in2="BackgroundImageFix" result="effect1_dropShadow"/><feBlend in="SourceGraphic" in2="effect1_dropShadow" result="shape"/></filter><filter id="filter8_d" width="116" height="64" x="212" y="48" color-interpolation-filters="sRGB" filterUnits="userSpaceOnUse"><feFlood flood-opacity="0" result="BackgroundImageFix"/><feColorMatrix in="SourceAlpha" values="0 0 0 0 0 0 0 0 0 0 0 0 0 0 0 0 0 0 127 0"/><feOffset/><feGaussianBlur stdDeviation="5"/><feColorMatrix values="0 0 0 0 0 0 0 0 0 0 0 0 0 0 0 0 0 0 0.08 0"/><feBlend in2="BackgroundImageFix" result="effect1_dropShadow"/><feBlend in="SourceGraphic" in2="effect1_dropShadow" result="shape"/></filter><filter id="filter9_d" width="116" height="64" x="212" y="92" color-interpolation-filters="sRGB" filterUnits="userSpaceOnUse"><feFlood flood-opacity="0" result="BackgroundImageFix"/><feColorMatrix in="SourceAlpha" values="0 0 0 0 0 0 0 0 0 0 0 0 0 0 0 0 0 0 127 0"/><feOffset/><feGaussianBlur stdDeviation="5"/><feColorMatrix values="0 0 0 0 0 0 0 0 0 0 0 0 0 0 0 0 0 0 0.08 0"/><feBlend in2="BackgroundImageFix" result="effect1_dropShadow"/><feBlend in="SourceGraphic" in2="effect1_dropShadow" result="shape"/></filter><filter id="filter10_d" width="116" height="64" x="212" y="136" color-interpolation-filters="sRGB" filterUnits="userSpaceOnUse"><feFlood flood-opacity="0" result="BackgroundImageFix"/><feColorMatrix in="SourceAlpha" values="0 0 0 0 0 0 0 0 0 0 0 0 0 0 0 0 0 0 127 0"/><feOffset/><feGaussianBlur stdDeviation="5"/><feColorMatrix values="0 0 0 0 0 0 0 0 0 0 0 0 0 0 0 0 0 0 0.08 0"/><feBlend in2="BackgroundImageFix" result="effect1_dropShadow"/><feBlend in="SourceGraphic" in2="effect1_dropShadow" result="shape"/></filter><filter id="filter11_d" width="116" height="68" x="318" y="0" color-interpolation-filters="sRGB" filterUnits="userSpaceOnUse"><feFlood flood-opacity="0" result="BackgroundImageFix"/><feColorMatrix in="SourceAlpha" values="0 0 0 0 0 0 0 0 0 0 0 0 0 0 0 0 0 0 127 0"/><feOffset/><feGaussianBlur stdDeviation="5"/><feColorMatrix values="0 0 0 0 0 0 0 0 0 0 0 0 0 0 0 0 0 0 0.08 0"/><feBlend in2="BackgroundImageFix" result="effect1_dropShadow"/><feBlend in="SourceGraphic" in2="effect1_dropShadow" result="shape"/></filter><filter id="filter12_d" width="116" height="64" x="318" y="48" color-interpolation-filters="sRGB" filterUnits="userSpaceOnUse"><feFlood flood-opacity="0" result="BackgroundImageFix"/><feColorMatrix in="SourceAlpha" values="0 0 0 0 0 0 0 0 0 0 0 0 0 0 0 0 0 0 127 0"/><feOffset/><feGaussianBlur stdDeviation="5"/><feColorMatrix values="0 0 0 0 0 0 0 0 0 0 0 0 0 0 0 0 0 0 0.08 0"/><feBlend in2="BackgroundImageFix" result="effect1_dropShadow"/><feBlend in="SourceGraphic" in2="effect1_dropShadow" result="shape"/></filter></defs></svg>