<svg xmlns="http://www.w3.org/2000/svg" fill="none" viewBox="0 0 421 191"><g stroke="#E9EBF0" stroke-width="2" opacity=".5"><rect width="78" height="55" x="7" y="66" rx="2"/><rect width="78" height="55" x="7" y="127" rx="2"/><rect width="78" height="55" x="91" y="66" rx="2"/><rect width="78" height="55" x="91" y="127" rx="2"/><rect width="78" height="55" x="91" y="5" rx="2"/><rect width="78" height="55" x="7" y="5" rx="2"/><rect width="78" height="55" x="175" y="5" rx="2"/><rect width="78" height="55" x="175" y="66" rx="2"/><rect width="78" height="55" x="175" y="127" rx="2"/><rect width="78" height="55" x="259" y="5" rx="2"/><rect width="78" height="55" x="259" y="66" rx="2"/><rect width="78" height="55" x="259" y="127" rx="2"/><rect width="77" height="55" x="343" y="5" rx="2"/><rect width="77" height="55" x="343" y="66" rx="2"/></g><g stroke="#B9BEC7" opacity=".3"><rect width="5" height="5" x="98.5" y="12.5" rx="2.5"/><rect width="5" height="5" x="14.5" y="12.5" rx="2.5"/><rect width="5" height="5" x="182.5" y="12.5" rx="2.5"/><rect width="5" height="5" x="266.5" y="12.5" rx="2.5"/><rect width="5" height="5" x="350.5" y="12.5" rx="2.5"/><rect width="5" height="5" x="14.5" y="73.5" rx="2.5"/><rect width="5" height="5" x="98.5" y="73.5" rx="2.5"/><rect width="5" height="5" x="182.5" y="73.5" rx="2.5"/><rect width="5" height="5" x="266.5" y="73.5" rx="2.5"/><rect width="5" height="5" x="350.5" y="73.5" rx="2.5"/><rect width="5" height="5" x="14.5" y="134.5" rx="2.5"/><rect width="5" height="5" x="98.5" y="134.5" rx="2.5"/><rect width="5" height="5" x="182.5" y="134.5" rx="2.5"/><rect width="5" height="5" x="266.5" y="134.5" rx="2.5"/></g><g filter="url(#filter0_d)"><rect width="80" height="57" x="90" y="65" fill="#fff" rx="3"/></g><circle cx="154" cy="106" r="7.5" stroke="#B9BEC7" stroke-dasharray="2 2" opacity=".6"/><rect width="28" height="6" x="101" y="73" fill="#E9EBF0" rx="3"/><path fill="#5595EF" d="M90 68a3 3 0 013-3v57a3 3 0 01-3-3V68z"/><g filter="url(#filter1_d)"><rect width="80" height="57" x="6" y="126" fill="#fff" rx="3"/></g><circle cx="70" cy="167" r="7.5" stroke="#B9BEC7" stroke-dasharray="2 2" opacity=".6"/><rect width="28" height="6" x="17" y="134" fill="#E9EBF0" rx="3"/><path fill="#E43A25" d="M6 129a3 3 0 013-3v57a3 3 0 01-3-3v-51z"/><g filter="url(#filter2_d)"><rect width="80" height="57" x="174" y="126" fill="#fff" rx="3"/></g><circle cx="238" cy="167" r="7.5" stroke="#B9BEC7" stroke-dasharray="2 2" opacity=".6"/><rect width="28" height="6" x="185" y="134" fill="#E9EBF0" rx="3"/><path fill="#7DC560" d="M174 129a3 3 0 013-3v57a3 3 0 01-3-3v-51z"/><g filter="url(#filter3_d)"><rect width="80" height="57" x="258" y="65" fill="#fff" rx="3"/></g><circle cx="322" cy="106" r="7.5" stroke="#B9BEC7" stroke-dasharray="2 2" opacity=".6"/><rect width="28" height="6" x="269" y="73" fill="#E9EBF0" rx="3"/><path fill="#FBCC43" d="M258 68a3 3 0 013-3v57a3 3 0 01-3-3V68z"/><g filter="url(#filter4_d)"><rect width="80" height="57" x="174" y="4" fill="#fff" rx="3"/></g><path fill="#B9BEC7" d="M174 7a3 3 0 013-3v57a3 3 0 01-3-3V7z"/><circle cx="238" cy="45" r="7.5" stroke="#B9BEC7" stroke-dasharray="2 2" opacity=".6"/><rect width="28" height="6" x="185" y="12" fill="#E9EBF0" rx="3"/><defs><filter id="filter0_d" width="92" height="69" x="84" y="61" color-interpolation-filters="sRGB" filterUnits="userSpaceOnUse"><feFlood flood-opacity="0" result="BackgroundImageFix"/><feColorMatrix in="SourceAlpha" values="0 0 0 0 0 0 0 0 0 0 0 0 0 0 0 0 0 0 127 0"/><feOffset dy="2"/><feGaussianBlur stdDeviation="3"/><feColorMatrix values="0 0 0 0 0 0 0 0 0 0 0 0 0 0 0 0 0 0 0.08 0"/><feBlend in2="BackgroundImageFix" result="effect1_dropShadow"/><feBlend in="SourceGraphic" in2="effect1_dropShadow" result="shape"/></filter><filter id="filter1_d" width="92" height="69" x="0" y="122" color-interpolation-filters="sRGB" filterUnits="userSpaceOnUse"><feFlood flood-opacity="0" result="BackgroundImageFix"/><feColorMatrix in="SourceAlpha" values="0 0 0 0 0 0 0 0 0 0 0 0 0 0 0 0 0 0 127 0"/><feOffset dy="2"/><feGaussianBlur stdDeviation="3"/><feColorMatrix values="0 0 0 0 0 0 0 0 0 0 0 0 0 0 0 0 0 0 0.08 0"/><feBlend in2="BackgroundImageFix" result="effect1_dropShadow"/><feBlend in="SourceGraphic" in2="effect1_dropShadow" result="shape"/></filter><filter id="filter2_d" width="92" height="69" x="168" y="122" color-interpolation-filters="sRGB" filterUnits="userSpaceOnUse"><feFlood flood-opacity="0" result="BackgroundImageFix"/><feColorMatrix in="SourceAlpha" values="0 0 0 0 0 0 0 0 0 0 0 0 0 0 0 0 0 0 127 0"/><feOffset dy="2"/><feGaussianBlur stdDeviation="3"/><feColorMatrix values="0 0 0 0 0 0 0 0 0 0 0 0 0 0 0 0 0 0 0.08 0"/><feBlend in2="BackgroundImageFix" result="effect1_dropShadow"/><feBlend in="SourceGraphic" in2="effect1_dropShadow" result="shape"/></filter><filter id="filter3_d" width="92" height="69" x="252" y="61" color-interpolation-filters="sRGB" filterUnits="userSpaceOnUse"><feFlood flood-opacity="0" result="BackgroundImageFix"/><feColorMatrix in="SourceAlpha" values="0 0 0 0 0 0 0 0 0 0 0 0 0 0 0 0 0 0 127 0"/><feOffset dy="2"/><feGaussianBlur stdDeviation="3"/><feColorMatrix values="0 0 0 0 0 0 0 0 0 0 0 0 0 0 0 0 0 0 0.08 0"/><feBlend in2="BackgroundImageFix" result="effect1_dropShadow"/><feBlend in="SourceGraphic" in2="effect1_dropShadow" result="shape"/></filter><filter id="filter4_d" width="92" height="69" x="168" y="0" color-interpolation-filters="sRGB" filterUnits="userSpaceOnUse"><feFlood flood-opacity="0" result="BackgroundImageFix"/><feColorMatrix in="SourceAlpha" values="0 0 0 0 0 0 0 0 0 0 0 0 0 0 0 0 0 0 127 0"/><feOffset dy="2"/><feGaussianBlur stdDeviation="3"/><feColorMatrix values="0 0 0 0 0 0 0 0 0 0 0 0 0 0 0 0 0 0 0.08 0"/><feBlend in2="BackgroundImageFix" result="effect1_dropShadow"/><feBlend in="SourceGraphic" in2="effect1_dropShadow" result="shape"/></filter></defs></svg>