<svg xmlns="http://www.w3.org/2000/svg" width="435" height="200" fill="none" viewBox="0 0 435 200"><g opacity=".3"><rect width="2" height="180" x="10" y="10" fill="#E9EBF0"/><rect width="2" height="180" x="42" y="10" fill="#E9EBF0"/><rect width="2" height="180" x="74" y="10" fill="#E9EBF0"/><rect width="2" height="180" x="106" y="10" fill="#E9EBF0"/><rect width="2" height="180" x="138" y="10" fill="#E9EBF0"/><rect width="2" height="180" x="170" y="10" fill="#E9EBF0"/><rect width="2" height="180" x="202" y="10" fill="#E9EBF0"/><rect width="2" height="180" x="234" y="10" fill="#E9EBF0"/><rect width="2" height="180" x="266" y="10" fill="#E9EBF0"/><rect width="2" height="180" x="298" y="10" fill="#E9EBF0"/><rect width="2" height="180" x="330" y="10" fill="#E9EBF0"/><rect width="2" height="180" x="362" y="10" fill="#E9EBF0"/><rect width="2" height="180" x="393" y="10" fill="#E9EBF0"/><rect width="2" height="180" x="423" y="10" fill="#E9EBF0"/></g><g filter="url(#filter0_d)"><rect width="322" height="28" x="10" y="10" fill="#fff" rx="3"/></g><path fill="#B9BEC7" d="M10 13C10 11.3431 11.3431 10 13 10V38C11.3431 38 10 36.6569 10 35V13Z"/><rect width="90" height="6" x="25" y="21" fill="#E9EBF0" rx="3"/><circle cx="318" cy="24" r="8.5" stroke="#B9BEC7" stroke-dasharray="2 2" opacity=".6"/><g filter="url(#filter1_d)"><rect width="194" height="28" x="74" y="48" fill="#fff" rx="3"/></g><path fill="#5595EF" d="M74 51C74 49.3431 75.3431 48 77 48V76C75.3431 76 74 74.6569 74 73V51Z"/><rect width="90" height="6" x="89" y="59" fill="#E9EBF0" rx="3"/><circle cx="254" cy="62" r="8.5" stroke="#B9BEC7" stroke-dasharray="2 2" opacity=".6"/><g filter="url(#filter2_d)"><rect width="321" height="28" x="74" y="86" fill="#fff" rx="3"/></g><path fill="#FBCC43" d="M74 89C74 87.3431 75.3431 86 77 86V114C75.3431 114 74 112.657 74 111V89Z"/><rect width="90" height="6" x="89" y="97" fill="#E9EBF0" rx="3"/><circle cx="381" cy="100" r="8.5" stroke="#B9BEC7" stroke-dasharray="2 2" opacity=".6"/><g filter="url(#filter3_d)"><rect width="194" height="28" x="138" y="124" fill="#fff" rx="3"/></g><path fill="#E43A25" d="M138 127C138 125.343 139.343 124 141 124V152C139.343 152 138 150.657 138 149V127Z"/><rect width="90" height="6" x="153" y="135" fill="#E9EBF0" rx="3"/><circle cx="318" cy="138" r="8.5" stroke="#B9BEC7" stroke-dasharray="2 2" opacity=".6"/><g filter="url(#filter4_d)"><rect width="223" height="28" x="202" y="162" fill="#fff" rx="3"/></g><path fill="#7DC560" d="M202 165C202 163.343 203.343 162 205 162V190C203.343 190 202 188.657 202 187V165Z"/><rect width="90" height="6" x="217" y="173" fill="#E9EBF0" rx="3"/><circle cx="411" cy="176" r="8.5" stroke="#B9BEC7" stroke-dasharray="2 2" opacity=".6"/><defs><filter id="filter0_d" width="342" height="48" x="0" y="0" color-interpolation-filters="sRGB" filterUnits="userSpaceOnUse"><feFlood flood-opacity="0" result="BackgroundImageFix"/><feColorMatrix in="SourceAlpha" type="matrix" values="0 0 0 0 0 0 0 0 0 0 0 0 0 0 0 0 0 0 127 0"/><feOffset/><feGaussianBlur stdDeviation="5"/><feColorMatrix type="matrix" values="0 0 0 0 0 0 0 0 0 0 0 0 0 0 0 0 0 0 0.08 0"/><feBlend in2="BackgroundImageFix" mode="normal" result="effect1_dropShadow"/><feBlend in="SourceGraphic" in2="effect1_dropShadow" mode="normal" result="shape"/></filter><filter id="filter1_d" width="214" height="48" x="64" y="38" color-interpolation-filters="sRGB" filterUnits="userSpaceOnUse"><feFlood flood-opacity="0" result="BackgroundImageFix"/><feColorMatrix in="SourceAlpha" type="matrix" values="0 0 0 0 0 0 0 0 0 0 0 0 0 0 0 0 0 0 127 0"/><feOffset/><feGaussianBlur stdDeviation="5"/><feColorMatrix type="matrix" values="0 0 0 0 0 0 0 0 0 0 0 0 0 0 0 0 0 0 0.08 0"/><feBlend in2="BackgroundImageFix" mode="normal" result="effect1_dropShadow"/><feBlend in="SourceGraphic" in2="effect1_dropShadow" mode="normal" result="shape"/></filter><filter id="filter2_d" width="341" height="48" x="64" y="76" color-interpolation-filters="sRGB" filterUnits="userSpaceOnUse"><feFlood flood-opacity="0" result="BackgroundImageFix"/><feColorMatrix in="SourceAlpha" type="matrix" values="0 0 0 0 0 0 0 0 0 0 0 0 0 0 0 0 0 0 127 0"/><feOffset/><feGaussianBlur stdDeviation="5"/><feColorMatrix type="matrix" values="0 0 0 0 0 0 0 0 0 0 0 0 0 0 0 0 0 0 0.08 0"/><feBlend in2="BackgroundImageFix" mode="normal" result="effect1_dropShadow"/><feBlend in="SourceGraphic" in2="effect1_dropShadow" mode="normal" result="shape"/></filter><filter id="filter3_d" width="214" height="48" x="128" y="114" color-interpolation-filters="sRGB" filterUnits="userSpaceOnUse"><feFlood flood-opacity="0" result="BackgroundImageFix"/><feColorMatrix in="SourceAlpha" type="matrix" values="0 0 0 0 0 0 0 0 0 0 0 0 0 0 0 0 0 0 127 0"/><feOffset/><feGaussianBlur stdDeviation="5"/><feColorMatrix type="matrix" values="0 0 0 0 0 0 0 0 0 0 0 0 0 0 0 0 0 0 0.08 0"/><feBlend in2="BackgroundImageFix" mode="normal" result="effect1_dropShadow"/><feBlend in="SourceGraphic" in2="effect1_dropShadow" mode="normal" result="shape"/></filter><filter id="filter4_d" width="243" height="48" x="192" y="152" color-interpolation-filters="sRGB" filterUnits="userSpaceOnUse"><feFlood flood-opacity="0" result="BackgroundImageFix"/><feColorMatrix in="SourceAlpha" type="matrix" values="0 0 0 0 0 0 0 0 0 0 0 0 0 0 0 0 0 0 127 0"/><feOffset/><feGaussianBlur stdDeviation="5"/><feColorMatrix type="matrix" values="0 0 0 0 0 0 0 0 0 0 0 0 0 0 0 0 0 0 0.08 0"/><feBlend in2="BackgroundImageFix" mode="normal" result="effect1_dropShadow"/><feBlend in="SourceGraphic" in2="effect1_dropShadow" mode="normal" result="shape"/></filter></defs></svg>