<svg xmlns="http://www.w3.org/2000/svg" fill="none" viewBox="0 0 435 200"><g filter="url(#filter0_d)"><rect width="415" height="36" x="10" y="10" fill="#fff" rx="3"/></g><path fill="#B9BEC7" d="M10 13a3 3 0 013-3v36a3 3 0 01-3-3V13z"/><g filter="url(#filter1_d)"><rect width="415" height="36" x="10" y="46" fill="#fff" rx="3"/></g><path fill="#5595EF" d="M10 49a3 3 0 013-3v36a3 3 0 01-3-3V49z"/><g filter="url(#filter2_d)"><rect width="415" height="36" x="10" y="82" fill="#fff" rx="3"/></g><path fill="#FBCC43" d="M10 85a3 3 0 013-3v36a3 3 0 01-3-3V85z"/><g filter="url(#filter3_d)"><rect width="415" height="36" x="10" y="118" fill="#fff" rx="3"/></g><path fill="#E43A25" d="M10 121a3 3 0 013-3v36a3 3 0 01-3-3v-30z"/><g filter="url(#filter4_d)"><rect width="415" height="36" x="10" y="154" fill="#fff" rx="3"/></g><path fill="#7DC560" d="M10 157a3 3 0 013-3v36a3 3 0 01-3-3v-30z"/><rect width="150" height="6" x="28" y="25" fill="#E9EBF0" rx="3"/><rect width="150" height="6" x="28" y="61" fill="#E9EBF0" rx="3"/><rect width="150" height="6" x="28" y="97" fill="#E9EBF0" rx="3"/><rect width="150" height="6" x="28" y="133" fill="#E9EBF0" rx="3"/><rect width="150" height="6" x="28" y="169" fill="#E9EBF0" rx="3"/><circle cx="395" cy="28" r="11.5" stroke="#B9BEC7" stroke-dasharray="2 2" opacity=".6"/><circle cx="395" cy="64" r="11.5" stroke="#B9BEC7" stroke-dasharray="2 2" opacity=".6"/><circle cx="395" cy="100" r="11.5" stroke="#B9BEC7" stroke-dasharray="2 2" opacity=".6"/><circle cx="395" cy="136" r="11.5" stroke="#B9BEC7" stroke-dasharray="2 2" opacity=".6"/><circle cx="395" cy="172" r="11.5" stroke="#B9BEC7" stroke-dasharray="2 2" opacity=".6"/><defs><filter id="filter0_d" width="435" height="56" x="0" y="0" color-interpolation-filters="sRGB" filterUnits="userSpaceOnUse"><feFlood flood-opacity="0" result="BackgroundImageFix"/><feColorMatrix in="SourceAlpha" values="0 0 0 0 0 0 0 0 0 0 0 0 0 0 0 0 0 0 127 0"/><feOffset/><feGaussianBlur stdDeviation="5"/><feColorMatrix values="0 0 0 0 0 0 0 0 0 0 0 0 0 0 0 0 0 0 0.08 0"/><feBlend in2="BackgroundImageFix" result="effect1_dropShadow"/><feBlend in="SourceGraphic" in2="effect1_dropShadow" result="shape"/></filter><filter id="filter1_d" width="435" height="56" x="0" y="36" color-interpolation-filters="sRGB" filterUnits="userSpaceOnUse"><feFlood flood-opacity="0" result="BackgroundImageFix"/><feColorMatrix in="SourceAlpha" values="0 0 0 0 0 0 0 0 0 0 0 0 0 0 0 0 0 0 127 0"/><feOffset/><feGaussianBlur stdDeviation="5"/><feColorMatrix values="0 0 0 0 0 0 0 0 0 0 0 0 0 0 0 0 0 0 0.08 0"/><feBlend in2="BackgroundImageFix" result="effect1_dropShadow"/><feBlend in="SourceGraphic" in2="effect1_dropShadow" result="shape"/></filter><filter id="filter2_d" width="435" height="56" x="0" y="72" color-interpolation-filters="sRGB" filterUnits="userSpaceOnUse"><feFlood flood-opacity="0" result="BackgroundImageFix"/><feColorMatrix in="SourceAlpha" values="0 0 0 0 0 0 0 0 0 0 0 0 0 0 0 0 0 0 127 0"/><feOffset/><feGaussianBlur stdDeviation="5"/><feColorMatrix values="0 0 0 0 0 0 0 0 0 0 0 0 0 0 0 0 0 0 0.08 0"/><feBlend in2="BackgroundImageFix" result="effect1_dropShadow"/><feBlend in="SourceGraphic" in2="effect1_dropShadow" result="shape"/></filter><filter id="filter3_d" width="435" height="56" x="0" y="108" color-interpolation-filters="sRGB" filterUnits="userSpaceOnUse"><feFlood flood-opacity="0" result="BackgroundImageFix"/><feColorMatrix in="SourceAlpha" values="0 0 0 0 0 0 0 0 0 0 0 0 0 0 0 0 0 0 127 0"/><feOffset/><feGaussianBlur stdDeviation="5"/><feColorMatrix values="0 0 0 0 0 0 0 0 0 0 0 0 0 0 0 0 0 0 0.08 0"/><feBlend in2="BackgroundImageFix" result="effect1_dropShadow"/><feBlend in="SourceGraphic" in2="effect1_dropShadow" result="shape"/></filter><filter id="filter4_d" width="435" height="56" x="0" y="144" color-interpolation-filters="sRGB" filterUnits="userSpaceOnUse"><feFlood flood-opacity="0" result="BackgroundImageFix"/><feColorMatrix in="SourceAlpha" values="0 0 0 0 0 0 0 0 0 0 0 0 0 0 0 0 0 0 127 0"/><feOffset/><feGaussianBlur stdDeviation="5"/><feColorMatrix values="0 0 0 0 0 0 0 0 0 0 0 0 0 0 0 0 0 0 0.08 0"/><feBlend in2="BackgroundImageFix" result="effect1_dropShadow"/><feBlend in="SourceGraphic" in2="effect1_dropShadow" result="shape"/></filter></defs></svg>