<svg xmlns="http://www.w3.org/2000/svg" fill="none" viewBox="0 0 435 200"><g filter="url(#filter0_d)"><rect width="132" height="85" x="10" y="10" fill="#fff" rx="3"/></g><circle cx="31" cy="31" r="8.5" stroke="#B9BEC7" stroke-dasharray="2 2" opacity=".6"/><rect width="24" height="6" x="48" y="28" fill="#E9EBF0" rx="3"/><rect width="8" height="8" x="27" y="53" fill="#B9BEC7" rx="2"/><rect width="51" height="6" x="48" y="54" fill="#E9EBF0" rx="3"/><rect width="51" height="6" x="48" y="70" fill="#E9EBF0" rx="3"/><rect width="8" height="8" x="27" y="69" fill="#5595EF" rx="2"/><g filter="url(#filter1_d)"><rect width="132" height="85" x="10" y="105" fill="#fff" rx="3"/></g><circle cx="31" cy="126" r="8.5" stroke="#B9BEC7" stroke-dasharray="2 2" opacity=".6"/><rect width="24" height="6" x="48" y="123" fill="#E9EBF0" rx="3"/><rect width="8" height="8" x="27" y="148" fill="#B9BEC7" rx="2"/><rect width="51" height="6" x="48" y="149" fill="#E9EBF0" rx="3"/><rect width="51" height="6" x="48" y="165" fill="#E9EBF0" rx="3"/><rect width="8" height="8" x="27" y="164" fill="#7DC560" rx="2"/><g filter="url(#filter2_d)"><rect width="132" height="85" x="152" y="10" fill="#fff" rx="3"/></g><circle cx="173" cy="31" r="8.5" stroke="#B9BEC7" stroke-dasharray="2 2" opacity=".6"/><rect width="24" height="6" x="190" y="28" fill="#E9EBF0" rx="3"/><rect width="8" height="8" x="169" y="53" fill="#FBCC43" rx="2"/><rect width="51" height="6" x="190" y="54" fill="#E9EBF0" rx="3"/><rect width="51" height="6" x="190" y="70" fill="#E9EBF0" rx="3"/><rect width="8" height="8" x="169" y="69" fill="#7DC560" rx="2"/><g filter="url(#filter3_d)"><rect width="132" height="85" x="152" y="105" fill="#fff" rx="3"/></g><circle cx="173" cy="126" r="8.5" stroke="#B9BEC7" stroke-dasharray="2 2" opacity=".6"/><rect width="24" height="6" x="190" y="123" fill="#E9EBF0" rx="3"/><rect width="8" height="8" x="169" y="148" fill="#B9BEC7" rx="2"/><rect width="51" height="6" x="190" y="149" fill="#E9EBF0" rx="3"/><rect width="51" height="6" x="190" y="165" fill="#E9EBF0" rx="3"/><rect width="8" height="8" x="169" y="164" fill="#5595EF" rx="2"/><g filter="url(#filter4_d)"><rect width="131" height="85" x="294" y="10" fill="#fff" rx="3"/></g><circle cx="315" cy="31" r="8.5" stroke="#B9BEC7" stroke-dasharray="2 2" opacity=".6"/><rect width="24" height="6" x="332" y="28" fill="#E9EBF0" rx="3"/><rect width="8" height="8" x="311" y="53" fill="#E43A25" rx="2"/><rect width="51" height="6" x="332" y="54" fill="#E9EBF0" rx="3"/><rect width="51" height="6" x="332" y="70" fill="#E9EBF0" rx="3"/><rect width="8" height="8" x="311" y="69" fill="#B9BEC7" rx="2"/><g filter="url(#filter5_d)"><rect width="131" height="85" x="294" y="105" fill="#fff" rx="3"/></g><circle cx="315" cy="126" r="8.5" stroke="#B9BEC7" stroke-dasharray="2 2" opacity=".6"/><rect width="24" height="6" x="332" y="123" fill="#E9EBF0" rx="3"/><rect width="8" height="8" x="311" y="148" fill="#FBCC43" rx="2"/><rect width="51" height="6" x="332" y="149" fill="#E9EBF0" rx="3"/><rect width="51" height="6" x="332" y="165" fill="#E9EBF0" rx="3"/><rect width="8" height="8" x="311" y="164" fill="#7DC560" rx="2"/><defs><filter id="filter0_d" width="152" height="105" x="0" y="0" color-interpolation-filters="sRGB" filterUnits="userSpaceOnUse"><feFlood flood-opacity="0" result="BackgroundImageFix"/><feColorMatrix in="SourceAlpha" values="0 0 0 0 0 0 0 0 0 0 0 0 0 0 0 0 0 0 127 0"/><feOffset/><feGaussianBlur stdDeviation="5"/><feColorMatrix values="0 0 0 0 0 0 0 0 0 0 0 0 0 0 0 0 0 0 0.08 0"/><feBlend in2="BackgroundImageFix" result="effect1_dropShadow"/><feBlend in="SourceGraphic" in2="effect1_dropShadow" result="shape"/></filter><filter id="filter1_d" width="152" height="105" x="0" y="95" color-interpolation-filters="sRGB" filterUnits="userSpaceOnUse"><feFlood flood-opacity="0" result="BackgroundImageFix"/><feColorMatrix in="SourceAlpha" values="0 0 0 0 0 0 0 0 0 0 0 0 0 0 0 0 0 0 127 0"/><feOffset/><feGaussianBlur stdDeviation="5"/><feColorMatrix values="0 0 0 0 0 0 0 0 0 0 0 0 0 0 0 0 0 0 0.08 0"/><feBlend in2="BackgroundImageFix" result="effect1_dropShadow"/><feBlend in="SourceGraphic" in2="effect1_dropShadow" result="shape"/></filter><filter id="filter2_d" width="152" height="105" x="142" y="0" color-interpolation-filters="sRGB" filterUnits="userSpaceOnUse"><feFlood flood-opacity="0" result="BackgroundImageFix"/><feColorMatrix in="SourceAlpha" values="0 0 0 0 0 0 0 0 0 0 0 0 0 0 0 0 0 0 127 0"/><feOffset/><feGaussianBlur stdDeviation="5"/><feColorMatrix values="0 0 0 0 0 0 0 0 0 0 0 0 0 0 0 0 0 0 0.08 0"/><feBlend in2="BackgroundImageFix" result="effect1_dropShadow"/><feBlend in="SourceGraphic" in2="effect1_dropShadow" result="shape"/></filter><filter id="filter3_d" width="152" height="105" x="142" y="95" color-interpolation-filters="sRGB" filterUnits="userSpaceOnUse"><feFlood flood-opacity="0" result="BackgroundImageFix"/><feColorMatrix in="SourceAlpha" values="0 0 0 0 0 0 0 0 0 0 0 0 0 0 0 0 0 0 127 0"/><feOffset/><feGaussianBlur stdDeviation="5"/><feColorMatrix values="0 0 0 0 0 0 0 0 0 0 0 0 0 0 0 0 0 0 0.08 0"/><feBlend in2="BackgroundImageFix" result="effect1_dropShadow"/><feBlend in="SourceGraphic" in2="effect1_dropShadow" result="shape"/></filter><filter id="filter4_d" width="151" height="105" x="284" y="0" color-interpolation-filters="sRGB" filterUnits="userSpaceOnUse"><feFlood flood-opacity="0" result="BackgroundImageFix"/><feColorMatrix in="SourceAlpha" values="0 0 0 0 0 0 0 0 0 0 0 0 0 0 0 0 0 0 127 0"/><feOffset/><feGaussianBlur stdDeviation="5"/><feColorMatrix values="0 0 0 0 0 0 0 0 0 0 0 0 0 0 0 0 0 0 0.08 0"/><feBlend in2="BackgroundImageFix" result="effect1_dropShadow"/><feBlend in="SourceGraphic" in2="effect1_dropShadow" result="shape"/></filter><filter id="filter5_d" width="151" height="105" x="284" y="95" color-interpolation-filters="sRGB" filterUnits="userSpaceOnUse"><feFlood flood-opacity="0" result="BackgroundImageFix"/><feColorMatrix in="SourceAlpha" values="0 0 0 0 0 0 0 0 0 0 0 0 0 0 0 0 0 0 127 0"/><feOffset/><feGaussianBlur stdDeviation="5"/><feColorMatrix values="0 0 0 0 0 0 0 0 0 0 0 0 0 0 0 0 0 0 0.08 0"/><feBlend in2="BackgroundImageFix" result="effect1_dropShadow"/><feBlend in="SourceGraphic" in2="effect1_dropShadow" result="shape"/></filter></defs></svg>